<?xml version="1.0" encoding="UTF-8" standalone="no"?>
<!DOCTYPE svg PUBLIC "-//W3C//DTD SVG 1.1//EN"
 "http://www.w3.org/Graphics/SVG/1.1/DTD/svg11.dtd">
<!-- Generated by graphviz version 2.47.1 (20210417.1919)
 -->
<!-- Title: IAF Form Pages: 1 -->
<svg width="183pt" height="332pt"
 viewBox="0.00 0.00 183.23 332.00" xmlns="http://www.w3.org/2000/svg" xmlns:xlink="http://www.w3.org/1999/xlink">
<g id="graph0" class="graph" transform="scale(1 1) rotate(0) translate(4 328)">
<title>IAF Form</title>
<polygon fill="white" stroke="transparent" points="-4,4 -4,-328 179.23,-328 179.23,4 -4,4"/>
<!-- Screen1 -->
<g id="node1" class="node">
<title>Screen1</title>
<polygon fill="none" stroke="black" points="151,-324 82,-324 82,-288 151,-288 151,-324"/>
<text text-anchor="start" x="94.46" y="-301.4" font-family="Times New Roman,serif" font-size="14.00">Screen1</text>
</g>
<!-- Screen3 -->
<g id="node2" class="node">
<title>Screen3</title>
<polygon fill="none" stroke="black" points="151,-252 82,-252 82,-216 151,-216 151,-252"/>
<text text-anchor="start" x="94.46" y="-229.4" font-family="Times New Roman,serif" font-size="14.00">Screen3</text>
</g>
<!-- Screen1&#45;&gt;Screen3 -->
<g id="edge1" class="edge">
<title>Screen1&#45;&gt;Screen3</title>
<path fill="none" stroke="black" d="M116.5,-287.7C116.5,-279.98 116.5,-270.71 116.5,-262.11"/>
<polygon fill="black" stroke="black" points="120,-262.1 116.5,-252.1 113,-262.1 120,-262.1"/>
</g>
<!-- Screen5 -->
<g id="node3" class="node">
<title>Screen5</title>
<polygon fill="none" stroke="black" points="163,-180 94,-180 94,-144 163,-144 163,-180"/>
<text text-anchor="start" x="106.46" y="-157.4" font-family="Times New Roman,serif" font-size="14.00">Screen5</text>
</g>
<!-- Screen3&#45;&gt;Screen5 -->
<g id="edge2" class="edge">
<title>Screen3&#45;&gt;Screen5</title>
<path fill="none" stroke="black" d="M119.47,-215.7C120.79,-207.98 122.38,-198.71 123.85,-190.11"/>
<polygon fill="black" stroke="black" points="127.33,-190.55 125.57,-180.1 120.43,-189.37 127.33,-190.55"/>
</g>
<!-- Screen4 -->
<g id="node4" class="node">
<title>Screen4</title>
<polygon fill="none" stroke="black" points="76,-180 7,-180 7,-144 76,-144 76,-180"/>
<text text-anchor="start" x="19.46" y="-157.4" font-family="Times New Roman,serif" font-size="14.00">Screen4</text>
</g>
<!-- Screen3&#45;&gt;Screen4 -->
<g id="edge3" class="edge">
<title>Screen3&#45;&gt;Screen4</title>
<path fill="none" stroke="black" d="M97.96,-215.7C88.7,-207.05 77.34,-196.45 67.24,-187.03"/>
<polygon fill="black" stroke="black" points="69.52,-184.37 59.83,-180.1 64.75,-189.49 69.52,-184.37"/>
</g>
<!-- Screen2 -->
<g id="node5" class="node">
<title>Screen2</title>
<polygon fill="none" stroke="black" points="170,-108 101,-108 101,-72 170,-72 170,-108"/>
<text text-anchor="start" x="113.46" y="-85.4" font-family="Times New Roman,serif" font-size="14.00">Screen2</text>
</g>
<!-- Screen5&#45;&gt;Screen2 -->
<g id="edge10" class="edge">
<title>Screen5&#45;&gt;Screen2</title>
<path fill="none" stroke="black" d="M130.23,-143.7C131,-135.98 131.93,-126.71 132.79,-118.11"/>
<polygon fill="black" stroke="black" points="136.28,-118.4 133.79,-108.1 129.31,-117.71 136.28,-118.4"/>
</g>
<!-- Screen2_1 -->
<g id="node6" class="node">
<title>Screen2_1</title>
<polygon fill="none" stroke="black" points="83,-108 0,-108 0,-72 83,-72 83,-108"/>
<text text-anchor="start" x="12.46" y="-85.4" font-family="Times New Roman,serif" font-size="14.00">Screen2_1</text>
</g>
<!-- Screen5&#45;&gt;Screen2_1 -->
<g id="edge9" class="edge">
<title>Screen5&#45;&gt;Screen2_1</title>
<path fill="none" stroke="black" d="M106.99,-143.7C96.04,-134.88 82.55,-124.03 70.68,-114.47"/>
<polygon fill="black" stroke="black" points="72.74,-111.65 62.76,-108.1 68.36,-117.1 72.74,-111.65"/>
</g>
<!-- Screen4&#45;&gt;Screen1 -->
<g id="edge6" class="edge">
<title>Screen4&#45;&gt;Screen1</title>
<path fill="none" stroke="black" d="M45.52,-180.17C50.29,-198.68 59.31,-228.63 72.5,-252 78.03,-261.79 85.42,-271.53 92.57,-279.94"/>
<polygon fill="black" stroke="black" points="90.05,-282.37 99.28,-287.56 95.3,-277.74 90.05,-282.37"/>
</g>
<!-- Screen4&#45;&gt;Screen2 -->
<g id="edge7" class="edge">
<title>Screen4&#45;&gt;Screen2</title>
<path fill="none" stroke="black" d="M64.74,-143.7C76.69,-134.8 91.42,-123.82 104.35,-114.2"/>
<polygon fill="black" stroke="black" points="106.6,-116.88 112.53,-108.1 102.42,-111.27 106.6,-116.88"/>
</g>
<!-- Screen4&#45;&gt;Screen2_1 -->
<g id="edge8" class="edge">
<title>Screen4&#45;&gt;Screen2_1</title>
<path fill="none" stroke="black" d="M41.5,-143.7C41.5,-135.98 41.5,-126.71 41.5,-118.11"/>
<polygon fill="black" stroke="black" points="45,-118.1 41.5,-108.1 38,-118.1 45,-118.1"/>
</g>
<!-- Screen2&#45;&gt;Screen1 -->
<g id="edge4" class="edge">
<title>Screen2&#45;&gt;Screen1</title>
<path fill="none" stroke="black" d="M151.54,-108.15C159.51,-117.88 168.33,-130.73 172.5,-144 177.3,-159.26 173.82,-164.05 172.5,-180 169.82,-212.33 173.99,-222.5 160.5,-252 155.9,-262.05 148.88,-271.76 141.8,-280.06"/>
<polygon fill="black" stroke="black" points="139.15,-277.77 135.06,-287.54 144.35,-282.45 139.15,-277.77"/>
</g>
<!-- Screen1_1 -->
<g id="node7" class="node">
<title>Screen1_1</title>
<polygon fill="none" stroke="black" points="83,-36 0,-36 0,0 83,0 83,-36"/>
<text text-anchor="start" x="12.46" y="-13.4" font-family="Times New Roman,serif" font-size="14.00">Screen1_1</text>
</g>
<!-- Screen2_1&#45;&gt;Screen1_1 -->
<g id="edge5" class="edge">
<title>Screen2_1&#45;&gt;Screen1_1</title>
<path fill="none" stroke="black" d="M35.58,-71.7C34.79,-63.98 34.56,-54.71 34.9,-46.11"/>
<polygon fill="black" stroke="black" points="38.4,-46.32 35.6,-36.1 31.42,-45.84 38.4,-46.32"/>
</g>
<!-- Screen1_1&#45;&gt;Screen2_1 -->
<g id="edge11" class="edge">
<title>Screen1_1&#45;&gt;Screen2_1</title>
<path fill="none" stroke="black" d="M47.4,-36.1C48.2,-43.79 48.44,-53.05 48.1,-61.67"/>
<polygon fill="black" stroke="black" points="44.61,-61.48 47.42,-71.7 51.59,-61.96 44.61,-61.48"/>
</g>
</g>
</svg>
